<svg version="1.1" xmlns="http://www.w3.org/2000/svg" xmlns:xlink="http://www.w3.org/1999/xlink" xmlns:a="http://ns.adobe.com/AdobeSVGViewerExtensions/3.0/" x="0" y="0" width="100" height="100" viewBox="0 0 100 100" xml:space="preserve" enable-background="new 0 0 100 100">
  <style type="text/css">
    
	.st0{fill:#FFFFFF;}
	.st1{fill:#666666;}
	.st2{fill:#00963E;}
	.st3{fill:#E2000B;}
	.st4{fill:#05000E;}

  </style>
  <path class="st0" d="M100 50c0-27.6-22.4-50-50-50C22.4 0 0 22.4 0 50c0 27.6 22.4 50 50 50C77.6 100 100 77.6 100 50z"/>
  <rect x="10" y="73" class="st1" width="47" height="1"/>
  <rect x="15" y="77" class="st1" width="47" height="1"/>
  <rect x="19" y="81" class="st1" width="47" height="1"/>
  <rect x="23" y="85" class="st1" width="47" height="1"/>
  <rect x="27" y="89" class="st1" width="47" height="1"/>
  <path class="st2" d="M49.4 16.9V45H47V15.9v-1.5c0-2.6 3.1-6.5 7.1-7.7 4.5-1.3 10.1 1.1 10.9 3.9 0.8 2.8-2.2 6.2-6.7 7.5C54.8 19.2 51.1 18.6 49.4 16.9z"/>
  <path class="st3" d="M74.7 64L50.5 48.5l-1 1.7 25 16.1 1.3 0.8c2.2 1.4 6.5-0.3 9.6-3 3.5-3.1 4.8-7.4 2.9-9.6 -1.9-2.2-6.4-1.5-9.9 1.6C75.6 58.5 74.2 61.7 74.7 64z"/>
  <path class="st4" d="M24.6 67.8l21.2-18.3 -1.3-1.5L23.8 65.8l-2.2 1.9c-2 1.6-2.4 5.6-0.7 9.4 1.9 4.3 6.4 6.9 9.1 5.7 2.7-1.2 2.1-5.6 0.2-9.9C28.7 69.5 27 68.1 24.6 67.8z"/>
</svg>
